<?xml version="1.0" encoding="utf-8"?>
<!-- Generator: Adobe Illustrator 21.0.0, SVG Export Plug-In . SVG Version: 6.00 Build 0)  -->
<!DOCTYPE svg PUBLIC "-//W3C//DTD SVG 1.1//EN" "http://www.w3.org/Graphics/SVG/1.1/DTD/svg11.dtd">
<svg version="1.1" id="Layer_1" xmlns="http://www.w3.org/2000/svg" xmlns:xlink="http://www.w3.org/1999/xlink" x="0px" y="0px"
	 viewBox="0 0 256 256" style="enable-background:new 0 0 256 256;" xml:space="preserve">
<g>
	<path d="M187.9,157.5h-36.5l-0.3,0.7c-6.2,14.8-14,27.4-23.5,37.9s-20.3,18.5-32.4,23.8c-12.1,5.3-25.2,8-39.3,8
		c-9.7,0-18.2-1.2-25.6-3.7l4.7-11.3c11.4,5.8,22.5,8.6,33.3,8.6c16.8,0,31.8-6.4,45.1-19.3c5.6-5.5,10.2-11.4,14-17.7
		c3.8-6.3,7.8-15.1,12.2-26.4l0.3-0.7H125l1-5h15.5l0.3-0.9l1-2.5c3.3-9.3,6.3-18.4,8.9-27.3c2.6-8.9,5.9-21,9.7-36.2
		c3.6-14.3,6.2-25.8,7.8-34.6l15.2-6.9c-0.8-0.2-1.4-0.3-1.9-0.4c-0.5,0-1.1-0.1-1.8-0.2c-24.6-2.7-45.7-4.1-63.3-4.1
		c-11.1,0-20.3,0.7-27.5,2.1c-7.2,1.4-13.1,3.6-17.7,6.5c-6.8,4.4-10.3,9.9-10.3,16.6c0,13.8,17.2,21.6,51.6,23.4l-9.8,10.4
		c-14-0.9-25.2-4.2-33.6-10c-8.5-5.8-12.7-13.3-12.7-22.3c0-12,7.6-21.7,22.7-29C93.1,31.1,112,28,136.9,28c6.6,0,15.2,0.4,25.7,1.2
		c10.5,0.8,21.4,1.8,32.6,3c11.2,1.2,20.6,2.5,28,3.9l2.6,0.4l-6.6,13.2l-2.6-0.4c-8.7-1.6-18.9-3.2-30.5-4.8l-1-0.1l-0.1,0.9
		c-0.5,2.4-1.8,8.3-4,17.5s-4.1,16.9-5.8,22.9c-1.7,6.1-3.4,12.3-5.3,18.8c-1.9,6.5-3.9,13-6,19.4c-3.7,11.4-7.2,21-10.4,28.7h35.5
		L187.9,157.5z"/>
</g>
</svg>
